<svg width="588" height="637" viewBox="0 0 588 637" fill="none" xmlns="http://www.w3.org/2000/svg">
<path d="M500.725 631.61C495.682 631.61 491.593 627.728 491.593 622.94C491.593 618.151 495.682 614.269 500.725 614.269C505.768 614.269 509.857 618.151 509.857 622.94C509.857 627.713 505.768 631.61 500.725 631.61Z" stroke="#04D361" stroke-width="3" stroke-miterlimit="10" stroke-linecap="round" stroke-linejoin="round"/>
<path d="M494.425 629.207L487.967 635.324" stroke="#04D361" stroke-width="3" stroke-miterlimit="10" stroke-linecap="round" stroke-linejoin="round"/>
<path d="M329.372 2L319.765 11.1224" stroke="#04D361" stroke-width="3" stroke-miterlimit="10" stroke-linecap="round" stroke-linejoin="round"/>
<path d="M329.372 11.1224L319.765 2" stroke="#04D361" stroke-width="3" stroke-miterlimit="10" stroke-linecap="round" stroke-linejoin="round"/>
<path d="M315.617 550.793L306.01 559.916" stroke="#04D361" stroke-width="3" stroke-miterlimit="10" stroke-linecap="round" stroke-linejoin="round"/>
<path d="M315.617 559.916L306.01 550.793" stroke="#04D361" stroke-width="3" stroke-miterlimit="10" stroke-linecap="round" stroke-linejoin="round"/>
<path d="M15.5866 178.903L2 178.903" stroke="#04D361" stroke-width="3" stroke-miterlimit="10" stroke-linecap="round" stroke-linejoin="round"/>
<path d="M8.79485 185.369L8.79485 172.453" stroke="#04D361" stroke-width="3" stroke-miterlimit="10" stroke-linecap="round" stroke-linejoin="round"/>
<path d="M413.022 132.258C408.472 132.258 404.765 128.753 404.765 124.418C404.765 120.098 408.456 116.578 413.022 116.578C417.572 116.578 421.279 120.083 421.279 124.418C421.263 128.753 417.572 132.258 413.022 132.258Z" stroke="#04D361" stroke-width="3" stroke-miterlimit="10" stroke-linecap="round" stroke-linejoin="round"/>
<path d="M577.899 329.664C573.349 329.664 569.642 326.159 569.642 321.824C569.642 317.503 573.333 313.984 577.899 313.984C582.449 313.984 586.156 317.488 586.156 321.824C586.14 326.159 582.449 329.664 577.899 329.664Z" stroke="#04D361" stroke-width="3" stroke-miterlimit="10" stroke-linecap="round" stroke-linejoin="round"/>
<path d="M58.7474 450.674C54.1973 450.674 50.4904 447.17 50.4904 442.834C50.4904 438.514 54.1814 434.994 58.7474 434.994C63.2975 434.994 67.0044 438.499 67.0044 442.834C66.9885 447.17 63.2975 450.674 58.7474 450.674Z" stroke="#04D361" stroke-width="3" stroke-miterlimit="10" stroke-linecap="round" stroke-linejoin="round"/>
<path d="M157.379 22.2867C157.379 23.8549 158.718 25.1261 160.37 25.1261C162.021 25.1261 163.36 23.8549 163.36 22.2867C163.36 20.7185 162.021 19.4473 160.37 19.4473C158.718 19.4473 157.379 20.7185 157.379 22.2867Z" fill="#9871F5"/>
<path d="M157.379 42.1213C157.379 43.6895 158.718 44.9607 160.37 44.9607C162.021 44.9607 163.36 43.6895 163.36 42.1213C163.36 40.5531 162.021 39.2819 160.37 39.2819C158.718 39.2819 157.379 40.5531 157.379 42.1213Z" fill="#9871F5"/>
<path d="M157.379 61.9381C157.379 63.5062 158.718 64.7775 160.37 64.7775C162.021 64.7775 163.36 63.5062 163.36 61.9381C163.36 60.3699 162.021 59.0986 160.37 59.0986C158.718 59.0986 157.379 60.3699 157.379 61.9381Z" fill="#9871F5"/>
<path d="M157.379 81.7698C157.379 83.338 158.718 84.6093 160.37 84.6093C162.021 84.6093 163.36 83.338 163.36 81.7698C163.36 80.2017 162.021 78.9304 160.37 78.9304C158.718 78.9304 157.379 80.2017 157.379 81.7698Z" fill="#9871F5"/>
<path d="M157.379 101.588C157.379 103.156 158.718 104.428 160.37 104.428C162.021 104.428 163.36 103.156 163.36 101.588C163.36 100.02 162.021 98.7489 160.37 98.7489C158.718 98.7489 157.379 100.02 157.379 101.588Z" fill="#9871F5"/>
<path d="M157.379 121.42C157.379 122.988 158.718 124.26 160.37 124.26C162.021 124.26 163.36 122.988 163.36 121.42C163.36 119.852 162.021 118.581 160.37 118.581C158.718 118.581 157.379 119.852 157.379 121.42Z" fill="#9871F5"/>
<path d="M136.506 22.2869C136.506 23.8551 137.845 25.1264 139.497 25.1264C141.148 25.1264 142.487 23.8551 142.487 22.2869C142.487 20.7188 141.148 19.4475 139.497 19.4475C137.845 19.4475 136.506 20.7188 136.506 22.2869Z" fill="#9871F5"/>
<path d="M136.506 42.1213C136.506 43.6895 137.845 44.9607 139.497 44.9607C141.148 44.9607 142.487 43.6895 142.487 42.1213C142.487 40.5531 141.148 39.2819 139.497 39.2819C137.845 39.2819 136.506 40.5531 136.506 42.1213Z" fill="#9871F5"/>
<path d="M136.506 61.9381C136.506 63.5062 137.845 64.7775 139.497 64.7775C141.148 64.7775 142.487 63.5062 142.487 61.9381C142.487 60.3699 141.148 59.0986 139.497 59.0986C137.845 59.0986 136.506 60.3699 136.506 61.9381Z" fill="#9871F5"/>
<path d="M136.506 81.7698C136.506 83.338 137.845 84.6093 139.497 84.6093C141.148 84.6093 142.487 83.338 142.487 81.7698C142.487 80.2017 141.148 78.9304 139.497 78.9304C137.845 78.9304 136.506 80.2017 136.506 81.7698Z" fill="#9871F5"/>
<path d="M136.506 101.588C136.506 103.156 137.845 104.428 139.497 104.428C141.148 104.428 142.487 103.156 142.487 101.588C142.487 100.02 141.148 98.7489 139.497 98.7489C137.845 98.7489 136.506 100.02 136.506 101.588Z" fill="#9871F5"/>
<path d="M136.506 121.42C136.506 122.988 137.845 124.26 139.497 124.26C141.148 124.26 142.487 122.988 142.487 121.42C142.487 119.852 141.148 118.581 139.497 118.581C137.845 118.581 136.506 119.852 136.506 121.42Z" fill="#9871F5"/>
<path d="M115.617 22.2869C115.617 23.8551 116.956 25.1264 118.607 25.1264C120.259 25.1264 121.598 23.8551 121.598 22.2869C121.598 20.7188 120.259 19.4475 118.607 19.4475C116.956 19.4475 115.617 20.7188 115.617 22.2869Z" fill="#9871F5"/>
<path d="M115.617 42.1213C115.617 43.6895 116.956 44.9607 118.607 44.9607C120.259 44.9607 121.598 43.6895 121.598 42.1213C121.598 40.5531 120.259 39.2819 118.607 39.2819C116.956 39.2819 115.617 40.5531 115.617 42.1213Z" fill="#9871F5"/>
<path d="M115.617 61.9381C115.617 63.5062 116.956 64.7775 118.607 64.7775C120.259 64.7775 121.598 63.5062 121.598 61.9381C121.598 60.3699 120.259 59.0986 118.607 59.0986C116.956 59.0986 115.617 60.3699 115.617 61.9381Z" fill="#9871F5"/>
<path d="M115.617 81.7698C115.617 83.338 116.956 84.6093 118.607 84.6093C120.259 84.6093 121.598 83.338 121.598 81.7698C121.598 80.2017 120.259 78.9304 118.607 78.9304C116.956 78.9304 115.617 80.2017 115.617 81.7698Z" fill="#9871F5"/>
<path d="M115.617 101.588C115.617 103.156 116.956 104.428 118.607 104.428C120.259 104.428 121.598 103.156 121.598 101.588C121.598 100.02 120.259 98.7489 118.607 98.7489C116.956 98.7489 115.617 100.02 115.617 101.588Z" fill="#9871F5"/>
<path d="M115.617 121.42C115.617 122.988 116.956 124.26 118.607 124.26C120.259 124.26 121.598 122.988 121.598 121.42C121.598 119.852 120.259 118.581 118.607 118.581C116.956 118.581 115.617 119.852 115.617 121.42Z" fill="#9871F5"/>
<path d="M94.7442 22.2869C94.7442 23.8551 96.083 25.1264 97.7346 25.1264C99.3862 25.1264 100.725 23.8551 100.725 22.2869C100.725 20.7188 99.3862 19.4475 97.7346 19.4475C96.083 19.4475 94.7442 20.7188 94.7442 22.2869Z" fill="#9871F5"/>
<path d="M94.7442 42.1213C94.7442 43.6895 96.083 44.9607 97.7346 44.9607C99.3862 44.9607 100.725 43.6895 100.725 42.1213C100.725 40.5531 99.3862 39.2819 97.7346 39.2819C96.083 39.2819 94.7442 40.5531 94.7442 42.1213Z" fill="#9871F5"/>
<path d="M94.7442 61.9381C94.7442 63.5062 96.083 64.7775 97.7346 64.7775C99.3862 64.7775 100.725 63.5062 100.725 61.9381C100.725 60.3699 99.3862 59.0986 97.7346 59.0986C96.083 59.0986 94.7442 60.3699 94.7442 61.9381Z" fill="#9871F5"/>
<path d="M94.7442 81.7698C94.7442 83.338 96.083 84.6093 97.7346 84.6093C99.3862 84.6093 100.725 83.338 100.725 81.7698C100.725 80.2017 99.3862 78.9304 97.7346 78.9304C96.083 78.9304 94.7442 80.2017 94.7442 81.7698Z" fill="#9871F5"/>
<path d="M94.7442 101.588C94.7442 103.156 96.083 104.428 97.7346 104.428C99.3862 104.428 100.725 103.156 100.725 101.588C100.725 100.02 99.3862 98.7489 97.7346 98.7489C96.083 98.7489 94.7442 100.02 94.7442 101.588Z" fill="#9871F5"/>
<path d="M94.7442 121.42C94.7442 122.988 96.083 124.26 97.7346 124.26C99.3862 124.26 100.725 122.988 100.725 121.42C100.725 119.852 99.3862 118.581 97.7346 118.581C96.083 118.581 94.7442 119.852 94.7442 121.42Z" fill="#9871F5"/>
<path d="M497.944 456.212C497.944 457.78 499.283 459.051 500.935 459.051C502.586 459.051 503.925 457.78 503.925 456.212C503.925 454.643 502.586 453.372 500.935 453.372C499.283 453.372 497.944 454.643 497.944 456.212Z" fill="#9871F5"/>
<path d="M497.945 476.029C497.945 477.597 499.284 478.868 500.936 478.868C502.587 478.868 503.926 477.597 503.926 476.029C503.926 474.46 502.587 473.189 500.936 473.189C499.284 473.189 497.945 474.46 497.945 476.029Z" fill="#9871F5"/>
<path d="M497.945 495.86C497.945 497.428 499.284 498.699 500.936 498.699C502.587 498.699 503.926 497.428 503.926 495.86C503.926 494.292 502.587 493.02 500.936 493.02C499.284 493.02 497.945 494.292 497.945 495.86Z" fill="#9871F5"/>
<path d="M477.056 456.209C477.056 457.778 478.395 459.049 480.047 459.049C481.698 459.049 483.037 457.778 483.037 456.209C483.037 454.641 481.698 453.37 480.047 453.37C478.395 453.37 477.056 454.641 477.056 456.209Z" fill="#9871F5"/>
<path d="M477.056 476.029C477.056 477.597 478.395 478.868 480.047 478.868C481.698 478.868 483.037 477.597 483.037 476.029C483.037 474.46 481.698 473.189 480.047 473.189C478.395 473.189 477.056 474.46 477.056 476.029Z" fill="#9871F5"/>
<path d="M477.056 495.858C477.056 497.426 478.395 498.698 480.047 498.698C481.698 498.698 483.037 497.426 483.037 495.858C483.037 494.29 481.698 493.019 480.047 493.019C478.395 493.019 477.056 494.29 477.056 495.858Z" fill="#9871F5"/>
<path d="M571.654 107.005C571.654 108.574 572.992 109.845 574.644 109.845C576.296 109.845 577.634 108.574 577.634 107.005C577.634 105.437 576.296 104.166 574.644 104.166C572.992 104.166 571.654 105.437 571.654 107.005Z" fill="#9871F5"/>
<path d="M571.654 126.821C571.654 128.39 572.993 129.661 574.644 129.661C576.296 129.661 577.635 128.39 577.635 126.821C577.635 125.253 576.296 123.982 574.644 123.982C572.993 123.982 571.654 125.253 571.654 126.821Z" fill="#9871F5"/>
<path d="M571.654 146.655C571.654 148.223 572.993 149.494 574.644 149.494C576.296 149.494 577.635 148.223 577.635 146.655C577.635 145.087 576.296 143.816 574.644 143.816C572.993 143.816 571.654 145.087 571.654 146.655Z" fill="#9871F5"/>
<path d="M550.765 107.005C550.765 108.573 552.104 109.844 553.755 109.844C555.407 109.844 556.746 108.573 556.746 107.005C556.746 105.437 555.407 104.165 553.755 104.165C552.104 104.165 550.765 105.437 550.765 107.005Z" fill="#9871F5"/>
<path d="M550.765 126.823C550.765 128.391 552.104 129.662 553.755 129.662C555.407 129.662 556.746 128.391 556.746 126.823C556.746 125.255 555.407 123.984 553.755 123.984C552.104 123.984 550.765 125.255 550.765 126.823Z" fill="#9871F5"/>
<path d="M550.765 146.655C550.765 148.223 552.104 149.494 553.755 149.494C555.407 149.494 556.746 148.223 556.746 146.655C556.746 145.087 555.407 143.816 553.755 143.816C552.104 143.816 550.765 145.087 550.765 146.655Z" fill="#9871F5"/>
<path d="M164.866 633.118C164.866 634.686 166.205 635.957 167.857 635.957C169.508 635.957 170.847 634.686 170.847 633.118C170.847 631.55 169.508 630.278 167.857 630.278C166.205 630.278 164.866 631.55 164.866 633.118Z" fill="#9871F5"/>
<path d="M143.977 633.118C143.977 634.686 145.316 635.957 146.968 635.957C148.619 635.957 149.958 634.686 149.958 633.118C149.958 631.55 148.619 630.278 146.968 630.278C145.316 630.278 143.977 631.55 143.977 633.118Z" fill="#9871F5"/>
<path d="M123.104 633.118C123.104 634.686 124.443 635.957 126.095 635.957C127.746 635.957 129.085 634.686 129.085 633.118C129.085 631.55 127.746 630.278 126.095 630.278C124.443 630.278 123.104 631.55 123.104 633.118Z" fill="#9871F5"/>
<path d="M102.215 633.118C102.215 634.686 103.554 635.957 105.206 635.957C106.857 635.957 108.196 634.686 108.196 633.118C108.196 631.55 106.857 630.278 105.206 630.278C103.554 630.278 102.215 631.55 102.215 633.118Z" fill="#9871F5"/>
<path d="M81.3421 633.118C81.3421 634.686 82.6809 635.957 84.3325 635.957C85.9841 635.957 87.323 634.686 87.323 633.118C87.323 631.55 85.9841 630.278 84.3325 630.278C82.681 630.278 81.3421 631.55 81.3421 633.118Z" fill="#9871F5"/>
<path d="M60.453 633.118C60.453 634.686 61.7919 635.957 63.4435 635.957C65.0951 635.957 66.4339 634.686 66.4339 633.118C66.4339 631.55 65.0951 630.278 63.4435 630.278C61.7919 630.278 60.453 631.55 60.453 633.118Z" fill="#9871F5"/>
<path d="M39.5797 633.118C39.5797 634.686 40.9186 635.957 42.5701 635.957C44.2217 635.957 45.5606 634.686 45.5606 633.118C45.5606 631.55 44.2217 630.278 42.5701 630.278C40.9186 630.278 39.5797 631.55 39.5797 633.118Z" fill="#9871F5"/>
<path d="M164.866 613.285C164.866 614.853 166.205 616.124 167.857 616.124C169.508 616.124 170.847 614.853 170.847 613.285C170.847 611.717 169.508 610.446 167.857 610.446C166.205 610.446 164.866 611.717 164.866 613.285Z" fill="#9871F5"/>
<path d="M143.977 613.285C143.977 614.853 145.316 616.124 146.968 616.124C148.619 616.124 149.958 614.853 149.958 613.285C149.958 611.717 148.619 610.446 146.968 610.446C145.316 610.446 143.977 611.717 143.977 613.285Z" fill="#9871F5"/>
<path d="M123.104 613.285C123.104 614.853 124.443 616.124 126.095 616.124C127.746 616.124 129.085 614.853 129.085 613.285C129.085 611.717 127.746 610.446 126.095 610.446C124.443 610.446 123.104 611.717 123.104 613.285Z" fill="#9871F5"/>
<path d="M102.215 613.285C102.215 614.853 103.554 616.124 105.206 616.124C106.857 616.124 108.196 614.853 108.196 613.285C108.196 611.717 106.857 610.446 105.206 610.446C103.554 610.446 102.215 611.717 102.215 613.285Z" fill="#9871F5"/>
<path d="M81.3421 613.285C81.3421 614.853 82.6809 616.124 84.3325 616.124C85.9841 616.124 87.323 614.853 87.323 613.285C87.323 611.717 85.9841 610.446 84.3325 610.446C82.6809 610.446 81.3421 611.717 81.3421 613.285Z" fill="#9871F5"/>
<path d="M60.453 613.285C60.453 614.853 61.7919 616.124 63.4434 616.124C65.095 616.124 66.4339 614.853 66.4339 613.285C66.4339 611.717 65.095 610.445 63.4434 610.445C61.7919 610.445 60.453 611.717 60.453 613.285Z" fill="#9871F5"/>
<path d="M39.5797 613.285C39.5797 614.853 40.9186 616.124 42.5701 616.124C44.2217 616.124 45.5606 614.853 45.5606 613.285C45.5606 611.717 44.2217 610.446 42.5701 610.446C40.9186 610.446 39.5797 611.717 39.5797 613.285Z" fill="#9871F5"/>
<path d="M164.866 593.467C164.866 595.035 166.205 596.306 167.857 596.306C169.508 596.306 170.847 595.035 170.847 593.467C170.847 591.899 169.508 590.627 167.857 590.627C166.205 590.627 164.866 591.899 164.866 593.467Z" fill="#9871F5"/>
<path d="M143.977 593.467C143.977 595.035 145.316 596.306 146.968 596.306C148.619 596.306 149.958 595.035 149.958 593.467C149.958 591.899 148.619 590.627 146.968 590.627C145.316 590.627 143.977 591.899 143.977 593.467Z" fill="#9871F5"/>
<path d="M123.104 593.467C123.104 595.035 124.443 596.306 126.094 596.306C127.746 596.306 129.085 595.035 129.085 593.467C129.085 591.899 127.746 590.627 126.094 590.627C124.443 590.627 123.104 591.899 123.104 593.467Z" fill="#9871F5"/>
<path d="M102.215 593.467C102.215 595.035 103.554 596.306 105.206 596.306C106.857 596.306 108.196 595.035 108.196 593.467C108.196 591.899 106.857 590.627 105.206 590.627C103.554 590.627 102.215 591.899 102.215 593.467Z" fill="#9871F5"/>
<path d="M81.3421 593.467C81.3421 595.035 82.6809 596.306 84.3325 596.306C85.9841 596.306 87.323 595.035 87.323 593.467C87.323 591.899 85.9841 590.627 84.3325 590.627C82.6809 590.627 81.3421 591.899 81.3421 593.467Z" fill="#9871F5"/>
<path d="M60.453 593.467C60.453 595.035 61.7919 596.306 63.4434 596.306C65.095 596.306 66.4339 595.035 66.4339 593.467C66.4339 591.899 65.095 590.627 63.4434 590.627C61.7919 590.627 60.453 591.899 60.453 593.467Z" fill="#9871F5"/>
<path d="M39.5797 593.467C39.5797 595.035 40.9186 596.306 42.5701 596.306C44.2217 596.306 45.5606 595.035 45.5606 593.467C45.5606 591.899 44.2217 590.627 42.5701 590.627C40.9186 590.627 39.5797 591.899 39.5797 593.467Z" fill="#9871F5"/>
<path d="M164.864 573.635C164.864 575.203 166.203 576.474 167.855 576.474C169.506 576.474 170.845 575.203 170.845 573.635C170.845 572.067 169.506 570.796 167.855 570.796C166.203 570.796 164.864 572.067 164.864 573.635Z" fill="#9871F5"/>
<path d="M143.977 573.635C143.977 575.203 145.316 576.474 146.968 576.474C148.619 576.474 149.958 575.203 149.958 573.635C149.958 572.066 148.619 570.795 146.968 570.795C145.316 570.795 143.977 572.066 143.977 573.635Z" fill="#9871F5"/>
<path d="M123.104 573.635C123.104 575.203 124.443 576.474 126.094 576.474C127.746 576.474 129.085 575.203 129.085 573.635C129.085 572.066 127.746 570.795 126.094 570.795C124.443 570.795 123.104 572.066 123.104 573.635Z" fill="#9871F5"/>
<path d="M102.215 573.635C102.215 575.203 103.554 576.474 105.206 576.474C106.857 576.474 108.196 575.203 108.196 573.635C108.196 572.066 106.857 570.795 105.206 570.795C103.554 570.795 102.215 572.066 102.215 573.635Z" fill="#9871F5"/>
<path d="M81.3421 573.635C81.3421 575.203 82.6809 576.474 84.3325 576.474C85.9841 576.474 87.323 575.203 87.323 573.635C87.323 572.066 85.9841 570.795 84.3325 570.795C82.6809 570.795 81.3421 572.066 81.3421 573.635Z" fill="#9871F5"/>
<path d="M60.453 573.635C60.453 575.203 61.7919 576.474 63.4434 576.474C65.095 576.474 66.4339 575.203 66.4339 573.635C66.4339 572.066 65.095 570.795 63.4434 570.795C61.7919 570.795 60.453 572.066 60.453 573.635Z" fill="#9871F5"/>
<path d="M39.5797 573.635C39.5797 575.203 40.9186 576.474 42.5701 576.474C44.2217 576.474 45.5606 575.203 45.5606 573.635C45.5606 572.066 44.2217 570.795 42.5701 570.795C40.9186 570.795 39.5797 572.066 39.5797 573.635Z" fill="#9871F5"/>
</svg>
